<svg version="1.1" id="Layer_1" xmlns="http://www.w3.org/2000/svg" xmlns:xlink="http://www.w3.org/1999/xlink" x="0px" y="0px"
	 width="100%" viewBox="0 0 1342 335" enable-background="new 0 0 1342 335" xml:space="preserve">
<path fill="none" opacity="1.000000" stroke="none" 
	d="
M991.000000,336.000000 
	C660.666687,336.000000 330.833405,336.000000 1.000088,336.000000 
	C1.000059,224.333389 1.000059,112.666771 1.000030,1.000118 
	C448.333221,1.000079 895.666443,1.000079 1342.999756,1.000040 
	C1342.999756,112.666542 1342.999756,224.333084 1342.999878,335.999817 
	C1225.833374,336.000000 1108.666626,336.000000 991.000000,336.000000 
M679.003357,61.060940 
	C679.003357,61.060940 678.973633,61.102890 679.487000,60.486748 
	C673.297119,56.186810 667.567505,50.887505 660.826904,47.783295 
	C643.858154,39.968719 625.005920,42.853565 614.549255,54.355606 
	C605.321838,64.505463 598.319824,76.191536 592.219238,88.994499 
	C590.153870,89.663620 588.088501,90.332733 585.379272,90.616440 
	C572.730408,86.829773 559.856506,84.561050 546.601135,85.011375 
	C532.299988,85.497238 524.807922,93.682762 526.134827,107.891235 
	C526.463013,111.405220 527.770081,115.093292 529.560181,118.155983 
	C535.176147,127.764328 543.727844,134.030441 554.353333,136.961517 
	C560.987122,138.791458 567.931763,139.494614 574.910583,140.734253 
	C574.682495,142.196548 574.430237,143.814163 573.799927,145.947952 
	C567.467651,151.810638 566.442139,158.666794 569.432495,167.040527 
	C568.445374,177.883148 567.458191,188.725769 566.454651,199.749008 
	C563.206360,200.252151 559.036133,200.531921 555.070740,201.583878 
	C544.856445,204.293549 539.469421,211.814392 539.850342,222.214508 
	C540.132812,229.925583 546.135498,236.856033 556.032898,237.781281 
	C566.514771,238.761215 577.191162,237.671997 587.782227,237.463943 
	C590.242615,237.415619 592.702271,237.171265 595.160339,237.197815 
	C602.570374,237.277817 609.999451,237.833145 617.382446,237.453064 
	C622.820068,237.173111 628.197144,235.716034 633.159912,235.443588 
	C630.944885,240.243988 628.148926,244.867905 626.626709,249.878754 
	C622.502930,263.453796 627.970337,277.010468 639.591003,282.595764 
	C647.068787,286.189911 655.102173,287.572906 663.359802,286.446594 
	C692.412964,282.483887 715.736877,258.589508 720.220947,229.124557 
	C730.847839,228.026779 741.474670,226.929001 752.939697,225.945892 
	C754.418152,225.787766 755.918152,225.739105 757.371704,225.454010 
	C767.896240,223.389816 778.411438,221.277863 788.630066,219.783783 
	C786.901367,223.541275 784.739563,227.164093 783.521851,231.080444 
	C779.135986,245.185974 784.240173,259.463898 796.594238,264.466766 
	C803.447998,267.242249 811.524719,268.957672 818.815247,268.346771 
	C846.580017,266.020355 871.227173,242.239731 875.705811,214.855591 
	C876.073730,212.605865 876.587769,210.380051 877.820129,208.054474 
	C885.248779,206.157181 892.676941,204.144531 898.164734,198.321899 
	C902.710449,193.498779 902.122681,188.700012 896.340393,185.856796 
	C879.676941,177.663269 862.868652,169.764328 845.729675,161.192856 
	C832.121155,154.365646 818.512695,147.538437 804.517883,140.177322 
	C802.883179,139.379395 801.170227,138.708862 799.627075,137.761734 
	C792.554077,133.420715 785.528625,129.002243 778.057983,124.095871 
	C764.486877,115.208282 750.915771,106.320702 736.864624,96.985184 
	C726.685242,90.382462 716.640808,83.557907 706.279602,77.253967 
	C699.221741,72.959816 691.720764,69.393944 683.990051,65.149025 
	C683.061218,64.256332 682.132446,63.363640 680.992493,61.646690 
	C680.316528,61.447945 679.640503,61.249199 679.003357,61.060940 
M143.919830,130.782700 
	C143.919830,146.708420 143.919830,162.634140 143.919830,179.006332 
	C146.934860,179.006332 151.234848,179.097656 155.529739,178.988297 
	C166.156143,178.717712 176.897842,179.231140 187.377548,177.823700 
	C202.956940,175.731369 212.470520,164.258698 212.802521,149.214966 
	C213.132706,134.253311 204.538940,122.252831 189.003769,119.988655 
	C173.838333,117.778358 158.295166,118.159584 142.567719,117.385902 
	C143.096390,122.326050 143.499039,126.088593 143.919830,130.782700 
M329.947937,170.181061 
	C329.623016,172.961578 329.298096,175.742111 328.945557,178.758759 
	C334.216339,178.758759 339.304993,178.758759 344.239624,178.758759 
	C343.846802,174.558777 343.238495,170.595383 343.171417,166.622833 
	C343.104431,162.657623 343.060486,158.565506 343.928802,154.738281 
	C345.560364,147.546997 352.524536,143.184372 359.820862,144.123413 
	C366.408691,144.971268 369.682678,149.177063 369.826324,157.359131 
	C369.950623,164.440277 369.852142,171.525330 369.852142,178.793762 
	C373.803253,178.793762 378.911713,178.793762 384.004639,178.793762 
	C383.661865,174.301575 383.213593,170.026093 383.042755,165.739548 
	C382.870483,161.415756 383.100281,157.076019 382.931061,152.751999 
	C382.509338,141.975525 376.869507,135.835464 366.137451,134.642670 
	C355.682739,133.480698 347.564484,137.098114 342.562286,147.759537 
	C339.332581,137.783371 332.254211,134.386826 323.241943,134.340668 
	C314.240692,134.294571 307.623352,138.517105 303.053741,146.384293 
	C303.384094,142.950134 303.714478,139.515961 304.066803,135.853424 
	C298.977600,135.853424 294.103333,135.853424 289.537842,135.853424 
	C289.537842,150.331314 289.537842,164.512833 289.537842,178.771698 
	C294.439667,178.771698 299.546112,178.771698 303.913727,178.771698 
	C303.913727,170.604584 303.189148,162.585007 304.127258,154.764877 
	C304.983459,147.627731 312.560303,143.214371 319.894379,144.117004 
	C326.551147,144.936295 329.866516,149.213409 329.980835,157.249252 
	C330.037720,161.245407 329.977783,165.243210 329.947937,170.181061 
M911.863647,118.078651 
	C910.722290,118.159416 909.580994,118.240189 909.018433,118.279999 
	C909.018433,138.549088 909.018433,158.578400 909.018433,178.804993 
	C913.731567,178.804993 919.009827,178.804993 923.778137,178.804993 
	C923.778137,168.303879 923.778137,158.009232 923.778137,148.225250 
	C925.636353,150.924545 927.300354,154.462799 929.941162,156.973618 
	C938.858948,165.452301 958.743225,165.589066 967.991760,157.481644 
	C969.589417,156.081131 970.990051,154.332352 972.091553,152.508789 
	C980.665466,138.314514 972.887268,121.380829 955.680481,119.327362 
	C941.535400,117.639282 927.097778,118.402069 911.863647,118.078651 
M1154.825562,150.873306 
	C1150.697266,151.164825 1146.465576,150.979233 1142.462402,151.847702 
	C1134.241821,153.631119 1129.989746,158.454453 1129.902344,165.127213 
	C1129.811890,172.033005 1134.174438,177.216385 1142.414307,179.042099 
	C1153.368286,181.469101 1163.817749,180.866287 1172.754150,171.072495 
	C1172.417358,174.332901 1172.200928,176.429108 1171.960083,178.761017 
	C1176.977417,178.761017 1181.886597,178.761017 1186.450562,178.761017 
	C1186.156372,174.400070 1185.769531,170.272781 1185.629272,166.137146 
	C1185.488525,161.982376 1185.658691,157.817978 1185.577759,153.660049 
	C1185.388794,143.972351 1181.208008,138.530045 1171.867065,136.031342 
	C1162.351807,133.486008 1152.782715,133.935547 1143.213867,135.859314 
	C1134.984131,137.513840 1134.936401,137.547211 1136.259888,144.371124 
	C1144.580200,143.678925 1152.809937,142.068359 1160.912720,142.558060 
	C1170.709473,143.150162 1173.912720,148.606064 1172.476074,157.430496 
	C1167.013916,155.317734 1161.336182,153.121597 1154.825562,150.873306 
M222.828232,147.475189 
	C217.232773,159.789322 221.774094,171.923706 234.183075,177.126358 
	C244.666153,181.521545 255.352417,181.460587 265.695496,176.823853 
	C279.629120,170.577515 282.956543,153.489197 272.853027,142.710297 
	C261.925293,131.052109 231.934586,131.068146 222.828232,147.475189 
M1071.316650,141.794937 
	C1071.230103,143.028397 1071.143555,144.261871 1071.083496,145.116257 
	C1082.160767,145.116257 1092.824707,145.116257 1104.515015,145.116257 
	C1093.904785,152.977753 1084.210083,160.471313 1074.163208,167.458572 
	C1069.898438,170.424622 1068.121460,173.635574 1069.816040,178.736160 
	C1086.975586,178.736160 1104.183716,178.736160 1121.586548,178.736160 
	C1122.061035,175.053253 1122.496338,171.675217 1122.831177,169.076447 
	C1110.710083,169.076447 1098.980103,169.076447 1086.624268,169.076447 
	C1096.699585,161.435059 1106.192871,153.869019 1116.100830,146.891724 
	C1120.364990,143.888870 1121.368774,140.591156 1120.027710,135.490784 
	C1118.370117,135.490784 1116.748047,135.490784 1115.125977,135.490784 
	C1102.802856,135.490784 1090.472778,135.730133 1078.160400,135.365555 
	C1073.636230,135.231552 1071.737549,136.744629 1071.316650,141.794937 
M1053.398315,179.062836 
	C1055.868896,179.062836 1058.339600,179.062836 1060.966553,179.062836 
	C1061.485107,175.284729 1061.950928,171.891479 1062.325317,169.163223 
	C1050.097412,169.163223 1038.298340,169.163223 1025.992188,169.163223 
	C1035.929199,161.635895 1045.436035,154.102295 1055.320190,147.101624 
	C1059.611694,144.062088 1061.088013,140.738632 1059.474854,135.690155 
	C1043.903320,135.690155 1028.284546,135.690155 1012.371826,135.690155 
	C1011.607117,138.925415 1010.860107,142.085449 1010.137268,145.143723 
	C1021.208374,145.143723 1032.005981,145.143723 1043.948608,145.143723 
	C1033.243530,153.090576 1023.593628,160.658295 1013.493408,167.567734 
	C1008.987122,170.650406 1008.083252,174.057587 1009.408020,179.062836 
	C1023.824158,179.062836 1038.125488,179.062836 1053.398315,179.062836 
M399.602997,179.061981 
	C415.018188,179.061981 430.433411,179.061981 445.942657,179.061981 
	C446.474884,175.167526 446.931549,171.826111 447.295837,169.160461 
	C434.969818,169.160461 423.247986,169.160461 410.987000,169.160461 
	C421.038940,161.551041 430.549072,153.994431 440.462921,147.011002 
	C444.836060,143.930511 445.934052,140.564682 444.505524,135.780975 
	C428.704895,135.780975 413.106964,135.780975 397.316681,135.780975 
	C396.558594,139.096069 395.840576,142.235718 395.161774,145.204102 
	C406.337402,145.204102 417.099884,145.204102 428.893036,145.204102 
	C418.292480,153.072754 408.732483,160.541550 398.754852,167.403137 
	C394.390076,170.404800 392.960022,173.726227 394.351105,178.870880 
	C395.715240,178.931808 397.172699,178.996887 399.602997,179.061981 
M458.463196,145.188416 
	C468.418182,145.188416 478.373138,145.188416 489.191528,145.188416 
	C478.340302,153.229858 468.480988,160.919479 458.191833,167.982925 
	C453.728394,171.047058 453.521332,174.482956 454.497986,178.925201 
	C471.773682,178.925201 488.748169,178.925201 506.159210,178.925201 
	C506.677551,175.387085 507.184448,171.927032 507.591614,169.147583 
	C495.298737,169.147583 483.562378,169.147583 471.263763,169.147583 
	C481.203156,161.613174 490.575714,154.135330 500.368591,147.255737 
	C504.718048,144.200165 506.121613,140.842499 504.614349,135.562927 
	C489.762634,135.562927 474.787994,135.519745 459.814056,135.607132 
	C457.429077,135.621063 454.684082,143.527283 456.257172,145.613907 
	C456.386353,145.785233 457.183411,145.453064 458.463196,145.188416 
M519.210327,232.868561 
	C524.824219,232.158661 530.437805,231.033234 531.979309,224.546829 
	C533.521484,218.057709 530.511230,212.846176 525.589966,208.894592 
	C519.619385,204.100525 512.515259,202.430771 505.036560,203.388031 
	C499.407745,204.108505 494.420013,206.394730 492.730530,212.635864 
	C491.411407,217.508652 493.924011,224.736938 499.551239,227.422943 
	C505.359192,230.195206 512.041138,231.136398 519.210327,232.868561 
M547.525696,145.755463 
	C545.332825,145.050079 543.186951,144.036301 540.938782,143.694290 
	C532.530457,142.415085 522.396729,150.084076 522.143127,157.734238 
	C521.901794,165.015762 529.098511,172.726974 537.214050,173.882584 
	C545.993896,175.132797 555.464233,169.851135 557.051392,162.509308 
	C558.749084,154.656021 553.330872,150.393585 547.525696,145.755463 
M559.851318,257.660553 
	C541.115662,259.092438 522.369629,260.406555 503.653168,262.055786 
	C499.924042,262.384399 496.307831,263.994354 491.554657,265.314819 
	C501.755768,271.595032 583.073608,265.516022 597.976868,258.296722 
	C585.550110,254.505981 573.140625,256.297363 559.851318,257.660553 
M985.016846,155.498627 
	C985.016846,163.215591 985.016846,170.932571 985.016846,178.795135 
	C989.286499,178.795135 994.383911,178.795135 998.192566,178.795135 
	C998.192566,171.497955 998.192566,164.417740 998.192566,157.337524 
	C998.192566,150.268753 998.192566,143.199997 998.192566,136.376175 
	C993.800049,136.376175 989.548767,136.376175 985.016846,136.376175 
	C985.016846,142.297607 985.016846,148.398544 985.016846,155.498627 
M589.117126,271.920654 
	C589.210327,271.782654 589.330444,271.654266 589.384949,271.502380 
	C589.410461,271.431183 589.317688,271.235382 589.264343,271.229706 
	C583.657104,270.634216 577.953918,269.099365 572.457764,269.645599 
	C555.586426,271.322479 538.777283,273.677155 521.987366,276.072601 
	C518.972290,276.502808 516.163818,278.380768 513.259888,279.590271 
	C513.362549,280.214081 513.465210,280.837891 513.567871,281.461700 
	C517.440491,281.947174 521.356628,283.056610 525.176697,282.789917 
	C533.455444,282.211975 541.748047,281.288330 549.920349,279.853546 
	C562.815125,277.589661 575.615784,274.789246 589.117126,271.920654 
M770.446838,235.926163 
	C765.460815,245.484238 765.514221,255.156952 770.535095,264.553436 
	C774.334778,271.664581 781.921631,274.366486 789.998413,272.196655 
	C789.611084,271.849915 789.306213,271.399231 788.887146,271.227661 
	C777.496521,266.564850 773.489136,257.872375 774.898132,246.052673 
	C775.412720,241.735291 775.514709,237.368729 775.889404,231.761139 
	C773.534363,233.489120 772.254517,234.428177 770.446838,235.926163 
M618.650635,253.237228 
	C618.656006,250.641129 617.558533,251.030029 615.979797,252.164856 
	C611.020386,255.729645 608.490479,265.017059 610.572449,272.255066 
	C612.426270,278.699585 617.482483,282.410828 626.108276,282.880951 
	C617.077759,277.304138 616.807556,269.412537 618.090393,260.993500 
	C618.439697,258.701080 618.533020,256.369629 618.650635,253.237228 
M998.437134,126.111855 
	C998.064453,123.767586 998.269165,119.759148 997.210632,119.391869 
	C994.067505,118.301392 990.371033,118.216980 987.010559,118.655586 
	C985.807617,118.812599 984.162842,121.580971 984.150085,123.168983 
	C984.137329,124.748642 985.553467,126.990959 986.988281,127.804131 
	C990.697449,129.906250 994.571167,129.674896 998.437134,126.111855 
z"/>
<path fill="#FEC045" opacity="1.000000" stroke="none" 
	d="
M633.601196,234.783478 
	C628.197144,235.716034 622.820068,237.173111 617.382446,237.453064 
	C609.999451,237.833145 602.570374,237.277817 595.160339,237.197815 
	C592.702271,237.171265 590.242615,237.415619 587.782227,237.463943 
	C577.191162,237.671997 566.514771,238.761215 556.032898,237.781281 
	C546.135498,236.856033 540.132812,229.925583 539.850342,222.214508 
	C539.469421,211.814392 544.856445,204.293549 555.070740,201.583878 
	C559.036133,200.531921 563.206360,200.252151 566.454651,199.749008 
	C567.458191,188.725769 568.445374,177.883148 570.035156,166.909241 
	C578.454651,175.173355 589.519592,173.940811 600.197876,176.055511 
	C585.898621,182.559128 583.999756,187.076294 590.074402,198.469131 
	C583.700867,198.890411 577.320984,199.308304 570.941162,199.726212 
	C574.663635,202.212814 578.373352,203.612885 582.173401,204.695587 
	C584.714111,205.419464 587.424316,206.223434 589.984375,206.026459 
	C592.898376,205.802246 597.467896,205.232010 598.191772,203.503189 
	C599.290955,200.878235 598.531616,196.678009 597.070496,193.943893 
	C594.029663,188.253845 594.108582,186.899948 600.436829,184.623657 
	C602.761658,183.787430 605.302185,183.568039 607.668457,182.825516 
	C610.175903,182.038666 613.115784,181.521988 614.896912,179.852600 
	C616.546936,178.306091 618.060181,175.067368 617.521973,173.174149 
	C617.000061,171.338364 613.958801,169.533569 611.724792,169.022079 
	C607.881104,168.142029 603.775696,168.487198 599.833130,167.938080 
	C593.432434,167.046600 586.900940,166.434586 580.747803,164.613037 
	C574.712646,162.826431 573.941650,156.117630 578.891418,152.099564 
	C580.525818,150.772827 582.544861,149.589600 584.566833,149.133560 
	C590.214539,147.859756 595.923706,146.728928 601.668762,146.051208 
	C607.928711,145.312714 614.361206,145.682999 620.505432,144.480835 
	C623.166626,143.960129 626.958435,140.954971 627.295715,138.648331 
	C627.883301,134.629272 623.606628,133.584732 620.225586,133.474289 
	C611.924133,133.203110 603.570984,132.758270 595.318787,133.405807 
	C590.489075,133.784790 585.813293,136.126602 580.666016,137.709106 
	C582.049438,139.694366 582.588196,140.467514 583.082703,141.177139 
	C579.853210,142.720184 577.015625,144.075989 574.177979,145.431793 
	C574.430237,143.814163 574.682495,142.196548 574.910583,140.734253 
	C567.931763,139.494614 560.987122,138.791458 554.353333,136.961517 
	C543.727844,134.030441 535.176147,127.764328 529.560181,118.155983 
	C527.770081,115.093292 526.463013,111.405220 526.134827,107.891235 
	C524.807922,93.682762 532.299988,85.497238 546.601135,85.011375 
	C559.856506,84.561050 572.730408,86.829773 585.702026,91.161652 
	C588.589172,93.167175 591.034790,94.912651 593.738586,96.037766 
	C604.624329,100.567535 615.583008,104.922478 626.527771,109.309547 
	C636.836731,113.441750 641.772156,111.670006 646.677490,101.645332 
	C651.937927,90.895187 654.509827,78.707710 664.055542,70.206703 
	C654.430603,71.367615 648.727295,77.067169 645.102295,85.300888 
	C642.961914,90.162521 640.938354,95.077324 638.710754,99.898193 
	C637.060608,103.469421 634.521484,104.775879 630.672119,102.747856 
	C627.736511,101.201225 624.688965,99.800850 621.565063,98.690170 
	C612.055176,95.309021 602.484131,92.099709 592.936890,88.823486 
	C598.319824,76.191536 605.321838,64.505463 614.549255,54.355606 
	C625.005920,42.853565 643.858154,39.968719 660.826904,47.783295 
	C667.567505,50.887505 673.297119,56.186810 678.818726,60.925285 
	C674.832275,60.696781 671.709167,60.567829 669.022522,65.502449 
	C674.774231,65.502449 679.596008,65.502449 684.417847,65.502441 
	C691.720764,69.393944 699.221741,72.959816 706.279602,77.253967 
	C716.640808,83.557907 726.685242,90.382462 736.847534,97.498123 
	C732.826111,103.695038 728.821655,109.379021 724.596924,114.763260 
	C726.242249,108.970528 728.107910,103.477554 730.182678,97.924835 
	C730.324158,97.700531 730.256531,97.535973 730.188843,97.371414 
	C730.152588,97.601166 730.116333,97.830933 729.727356,97.895927 
	C722.129089,100.273468 717.056702,106.573235 716.861389,113.503693 
	C716.733765,118.033134 718.183716,121.762680 722.799805,123.928764 
	C723.542542,120.719872 724.203552,117.864090 724.873108,115.439690 
	C725.281494,118.477402 725.166687,121.304428 726.172852,123.650772 
	C729.957275,132.476120 748.453674,141.275681 758.044556,139.528244 
	C767.382996,137.826797 771.575562,129.434586 778.486084,124.611565 
	C785.528625,129.002243 792.554077,133.420715 799.627075,137.761734 
	C801.170227,138.708862 802.883179,139.379395 804.354492,140.536713 
	C797.665161,142.987671 792.411133,146.264374 790.791748,153.663986 
	C787.981079,166.507477 795.445801,180.306549 808.850708,184.885590 
	C814.862427,186.939163 821.506470,187.141495 827.614319,188.413544 
	C822.494080,191.026688 817.492432,193.181366 812.793030,195.865326 
	C808.958557,198.055344 805.485291,200.877853 801.598145,203.180023 
	C795.952209,196.913223 789.696899,192.147171 781.155884,193.387711 
	C769.143616,195.132385 759.944824,201.637070 754.122559,212.287155 
	C751.907654,216.338760 749.673523,220.865311 752.101562,225.831207 
	C741.474670,226.929001 730.847839,228.026779 719.702759,228.728836 
	C719.538940,220.524155 717.376831,213.808945 710.956970,208.818726 
	C710.141418,208.184799 709.826965,206.906143 709.182495,205.565170 
	C704.492859,193.221100 694.586304,184.926010 683.671631,185.446579 
	C671.715088,186.016846 660.383911,189.261963 651.904602,198.573196 
	C645.910522,205.155350 640.168579,211.995346 644.958130,222.139404 
	C641.050354,226.548553 637.325806,230.666016 633.601196,234.783478 
M657.091064,118.339760 
	C659.667786,134.560440 672.935242,144.412003 691.969788,144.238525 
	C705.242554,144.117554 714.938049,134.471634 715.090759,121.237526 
	C715.214539,110.510796 710.167725,102.626892 701.017212,97.691528 
	C682.901001,87.920464 659.668213,91.534706 657.091064,118.339760 
M751.539673,189.044205 
	C759.498657,180.815842 760.526062,173.353516 754.757629,163.894440 
	C750.570923,157.029160 744.448914,152.491486 737.315552,148.768875 
	C729.489441,144.684769 715.110413,149.710739 710.035156,155.790573 
	C697.329041,171.011734 708.320984,190.284851 722.005737,196.121384 
	C733.171814,200.883713 742.334106,196.099609 751.539673,189.044205 
M646.052490,141.129532 
	C650.028931,148.693909 656.534912,153.025696 664.598022,154.945175 
	C675.600952,157.564499 686.337891,155.251190 696.963074,152.401672 
	C698.058289,152.107956 698.991455,151.210175 699.999878,150.592682 
	C699.917236,150.144913 699.834534,149.697144 699.751892,149.249374 
	C691.015137,148.944901 682.279480,148.444504 673.541321,148.394547 
	C665.791382,148.350220 659.276855,145.893906 654.048828,140.118317 
	C651.625854,137.441544 649.132568,134.828369 646.671143,132.186386 
	C646.218201,132.294434 645.765320,132.402496 645.312378,132.510544 
	C645.483582,135.137222 645.654724,137.763885 646.052490,141.129532 
M748.262817,214.201477 
	C758.107300,197.359238 772.723755,187.929703 792.389465,185.808044 
	C790.365356,184.454361 788.381714,183.269653 786.244385,182.827316 
	C771.813049,179.840591 750.581116,191.742752 745.677795,205.634644 
	C744.944031,207.713562 744.994690,210.199341 745.246887,212.433167 
	C745.349487,213.342255 746.958435,214.081284 748.262817,214.201477 
M768.310059,164.093369 
	C766.105774,160.933350 767.567078,158.838364 770.374878,157.214828 
	C772.380127,156.055283 774.583130,155.196381 776.463562,153.870956 
	C780.093506,151.312469 782.777832,148.160049 781.603882,142.928345 
	C776.806580,145.386429 772.263794,147.698547 767.738586,150.044632 
	C766.710999,150.577393 765.705872,151.172287 764.756348,151.833313 
	C758.472046,156.208374 758.086121,163.743546 764.515137,167.847366 
	C767.772827,169.926834 772.091980,170.343536 775.931213,171.511978 
	C776.066345,171.028503 776.201477,170.545029 776.336609,170.061554 
	C773.820007,168.257080 771.303406,166.452591 768.310059,164.093369 
M603.591675,229.969849 
	C601.234985,231.249588 598.878296,232.529327 596.158630,234.006149 
	C602.603577,238.532089 611.597717,235.500198 616.413635,227.427582 
	C612.040710,228.269531 608.196167,229.009735 603.591675,229.969849 
M684.462402,167.180771 
	C686.077209,165.709869 687.692017,164.238983 689.139832,162.920227 
	C682.670349,162.920227 676.602600,162.920227 670.186707,162.920227 
	C673.306091,169.161789 677.122864,170.277206 684.462402,167.180771 
z"/>
<path fill="#BF6A31" opacity="1.000000" stroke="none" 
	d="
M709.280396,205.926193 
	C709.826965,206.906143 710.141418,208.184799 710.956970,208.818726 
	C717.376831,213.808945 719.538940,220.524155 719.273193,228.790619 
	C715.736877,258.589508 692.412964,282.483887 663.359802,286.446594 
	C655.102173,287.572906 647.068787,286.189911 639.591003,282.595764 
	C627.970337,277.010468 622.502930,263.453796 626.626709,249.878754 
	C628.148926,244.867905 630.944885,240.243988 633.380554,235.113525 
	C637.325806,230.666016 641.050354,226.548553 645.247070,222.008575 
	C652.859497,216.820221 659.999878,212.054352 667.502075,207.260498 
	C669.813782,206.449966 671.763733,205.667404 674.156555,204.939392 
	C675.427490,204.977829 676.299133,205.126450 677.076965,204.920593 
	C687.109680,202.265244 696.974121,202.487289 706.700073,206.359146 
	C707.392944,206.634964 708.412659,206.089691 709.280396,205.926193 
M664.775146,265.494446 
	C668.865967,263.316406 673.584412,261.830505 676.913025,258.812012 
	C683.261475,253.055069 689.708557,247.025864 694.458191,239.991211 
	C699.487610,232.542236 695.146912,225.597992 686.257568,226.049301 
	C681.306946,226.300644 675.783752,227.498138 671.715027,230.123459 
	C665.078125,234.405838 659.153748,239.932449 653.467468,245.485718 
	C650.844543,248.047302 649.135864,251.759613 647.660339,255.225906 
	C645.904846,259.350250 647.424622,263.389984 651.488586,264.712006 
	C655.367920,265.973969 659.816345,265.486420 664.775146,265.494446 
z"/>
<path fill="#BF6A31" opacity="1.000000" stroke="none" 
	d="
M801.851868,203.419907 
	C805.485291,200.877853 808.958557,198.055344 812.793030,195.865326 
	C817.492432,193.181366 822.494080,191.026688 827.960632,188.215851 
	C831.363220,186.889221 834.170288,185.989914 837.149414,185.329315 
	C837.882996,185.678833 838.444519,185.789642 839.419739,185.880905 
	C846.963379,184.175903 853.913147,185.011658 860.742554,187.388412 
	C869.698364,190.505219 874.195923,197.498596 876.941406,206.387665 
	C877.001404,207.204407 877.017578,207.673767 877.033813,208.143127 
	C876.587769,210.380051 876.073730,212.605865 875.705811,214.855591 
	C871.227173,242.239731 846.580017,266.020355 818.815247,268.346771 
	C811.524719,268.957672 803.447998,267.242249 796.594238,264.466766 
	C784.240173,259.463898 779.135986,245.185974 783.521851,231.080444 
	C784.739563,227.164093 786.901367,223.541275 788.923889,219.166931 
	C793.429077,213.506668 797.640442,208.463287 801.851868,203.419907 
M816.002625,221.487045 
	C812.850708,225.109665 809.424255,228.534302 806.627502,232.413010 
	C804.059631,235.974304 802.149780,240.250793 805.202881,244.407761 
	C808.239441,248.542145 812.713135,249.442825 817.706604,248.483017 
	C831.223022,245.885010 840.023804,236.545776 848.376953,226.794464 
	C851.930786,222.645752 855.439209,217.417664 851.645813,211.911362 
	C847.875061,206.437897 841.323120,206.576080 836.218323,208.897339 
	C829.259827,212.061523 823.064697,216.904266 816.002625,221.487045 
z"/>
<path fill="#CD2604" opacity="1.000000" stroke="none" 
	d="
M143.910767,130.316925 
	C143.499039,126.088593 143.096390,122.326050 142.567719,117.385902 
	C158.295166,118.159584 173.838333,117.778358 189.003769,119.988655 
	C204.538940,122.252831 213.132706,134.253311 212.802521,149.214966 
	C212.470520,164.258698 202.956940,175.731369 187.377548,177.823700 
	C176.897842,179.231140 166.156143,178.717712 155.529739,178.988297 
	C151.234848,179.097656 146.934860,179.006332 143.919830,179.006332 
	C143.919830,162.634140 143.919830,146.708420 143.910767,130.316925 
M170.482025,130.000748 
	C166.224030,130.000748 161.966034,130.000748 157.651154,130.000748 
	C157.651154,142.659790 157.651154,154.707855 157.651154,166.919510 
	C165.256332,166.919510 172.576675,167.280350 179.847702,166.835495 
	C190.939987,166.156876 198.288528,159.101196 198.813507,149.359436 
	C199.329697,139.780258 192.999283,132.599594 181.884476,130.598633 
	C178.485275,129.986679 174.941528,130.177536 170.482025,130.000748 
z"/>
<path fill="#CD2704" opacity="1.000000" stroke="none" 
	d="
M329.959320,169.710663 
	C329.977783,165.243210 330.037720,161.245407 329.980835,157.249252 
	C329.866516,149.213409 326.551147,144.936295 319.894379,144.117004 
	C312.560303,143.214371 304.983459,147.627731 304.127258,154.764877 
	C303.189148,162.585007 303.913727,170.604584 303.913727,178.771698 
	C299.546112,178.771698 294.439667,178.771698 289.537842,178.771698 
	C289.537842,164.512833 289.537842,150.331314 289.537842,135.853424 
	C294.103333,135.853424 298.977600,135.853424 304.066803,135.853424 
	C303.714478,139.515961 303.384094,142.950134 303.053741,146.384293 
	C307.623352,138.517105 314.240692,134.294571 323.241943,134.340668 
	C332.254211,134.386826 339.332581,137.783371 342.562286,147.759537 
	C347.564484,137.098114 355.682739,133.480698 366.137451,134.642670 
	C376.869507,135.835464 382.509338,141.975525 382.931061,152.751999 
	C383.100281,157.076019 382.870483,161.415756 383.042755,165.739548 
	C383.213593,170.026093 383.661865,174.301575 384.004639,178.793762 
	C378.911713,178.793762 373.803253,178.793762 369.852142,178.793762 
	C369.852142,171.525330 369.950623,164.440277 369.826324,157.359131 
	C369.682678,149.177063 366.408691,144.971268 359.820862,144.123413 
	C352.524536,143.184372 345.560364,147.546997 343.928802,154.738281 
	C343.060486,158.565506 343.104431,162.657623 343.171417,166.622833 
	C343.238495,170.595383 343.846802,174.558777 344.239624,178.758759 
	C339.304993,178.758759 334.216339,178.758759 328.945557,178.758759 
	C329.298096,175.742111 329.623016,172.961578 329.959320,169.710663 
z"/>
<path fill="#CD2704" opacity="1.000000" stroke="none" 
	d="
M912.326782,118.078621 
	C927.097778,118.402069 941.535400,117.639282 955.680481,119.327362 
	C972.887268,121.380829 980.665466,138.314514 972.091553,152.508789 
	C970.990051,154.332352 969.589417,156.081131 967.991760,157.481644 
	C958.743225,165.589066 938.858948,165.452301 929.941162,156.973618 
	C927.300354,154.462799 925.636353,150.924545 923.778137,148.225250 
	C923.778137,158.009232 923.778137,168.303879 923.778137,178.804993 
	C919.009827,178.804993 913.731567,178.804993 909.018433,178.804993 
	C909.018433,158.578400 909.018433,138.549088 909.018433,118.279999 
	C909.580994,118.240189 910.722290,118.159416 912.326782,118.078621 
M923.248535,135.982178 
	C925.205322,139.691696 926.337341,144.343307 929.283508,146.922775 
	C936.315491,153.079346 944.970642,153.702271 953.687500,150.758682 
	C958.988342,148.968628 962.029480,144.510025 961.832764,139.955093 
	C961.619995,135.027740 958.323669,130.585617 952.273376,130.094391 
	C942.775574,129.323242 933.169128,129.889694 923.185791,129.889694 
	C923.185791,131.879898 923.185791,133.509857 923.248535,135.982178 
z"/>
<path fill="#CC2501" opacity="1.000000" stroke="none" 
	d="
M876.897522,206.040253 
	C874.195923,197.498596 869.698364,190.505219 860.742554,187.388412 
	C853.913147,185.011658 846.963379,184.175903 839.417725,185.547501 
	C838.885010,184.393082 838.768127,183.552521 838.454712,181.298248 
	C837.616211,183.450546 837.296753,184.270584 836.977295,185.090607 
	C834.170288,185.989914 831.363220,186.889221 828.209900,187.986206 
	C821.506470,187.141495 814.862427,186.939163 808.850708,184.885590 
	C795.445801,180.306549 787.981079,166.507477 790.791748,153.663986 
	C792.411133,146.264374 797.665161,142.987671 804.547668,140.803665 
	C818.512695,147.538437 832.121155,154.365646 845.837402,161.880264 
	C844.547363,167.966797 843.149658,173.365921 841.574585,178.903809 
	C841.734131,179.174820 842.071045,179.307037 842.788757,179.369354 
	C847.673523,178.748138 852.421204,176.999969 856.637939,177.858795 
	C872.450928,181.079468 878.321594,189.735596 876.897522,206.040253 
M813.162354,165.346146 
	C814.869202,164.622498 816.993225,164.266846 818.099121,163.013077 
	C818.617676,162.425262 817.577576,159.570709 816.486145,158.745560 
	C815.659851,158.120834 812.547974,158.756073 812.352051,159.404343 
	C811.844910,161.082993 812.387390,163.078796 813.162354,165.346146 
z"/>
<path fill="#080603" opacity="1.000000" stroke="none" 
	d="
M573.988953,145.689880 
	C577.015625,144.075989 579.853210,142.720184 583.082703,141.177139 
	C582.588196,140.467514 582.049438,139.694366 580.666016,137.709106 
	C585.813293,136.126602 590.489075,133.784790 595.318787,133.405807 
	C603.570984,132.758270 611.924133,133.203110 620.225586,133.474289 
	C623.606628,133.584732 627.883301,134.629272 627.295715,138.648331 
	C626.958435,140.954971 623.166626,143.960129 620.505432,144.480835 
	C614.361206,145.682999 607.928711,145.312714 601.668762,146.051208 
	C595.923706,146.728928 590.214539,147.859756 584.566833,149.133560 
	C582.544861,149.589600 580.525818,150.772827 578.891418,152.099564 
	C573.941650,156.117630 574.712646,162.826431 580.747803,164.613037 
	C586.900940,166.434586 593.432434,167.046600 599.833130,167.938080 
	C603.775696,168.487198 607.881104,168.142029 611.724792,169.022079 
	C613.958801,169.533569 617.000061,171.338364 617.521973,173.174149 
	C618.060181,175.067368 616.546936,178.306091 614.896912,179.852600 
	C613.115784,181.521988 610.175903,182.038666 607.668457,182.825516 
	C605.302185,183.568039 602.761658,183.787430 600.436829,184.623657 
	C594.108582,186.899948 594.029663,188.253845 597.070496,193.943893 
	C598.531616,196.678009 599.290955,200.878235 598.191772,203.503189 
	C597.467896,205.232010 592.898376,205.802246 589.984375,206.026459 
	C587.424316,206.223434 584.714111,205.419464 582.173401,204.695587 
	C578.373352,203.612885 574.663635,202.212814 570.941162,199.726212 
	C577.320984,199.308304 583.700867,198.890411 590.074402,198.469131 
	C583.999756,187.076294 585.898621,182.559128 600.197876,176.055511 
	C589.519592,173.940811 578.454651,175.173355 570.306702,166.577179 
	C566.442139,158.666794 567.467651,151.810638 573.988953,145.689880 
z"/>
<path fill="#CD2907" opacity="1.000000" stroke="none" 
	d="
M1155.241943,150.899384 
	C1161.336182,153.121597 1167.013916,155.317734 1172.476074,157.430496 
	C1173.912720,148.606064 1170.709473,143.150162 1160.912720,142.558060 
	C1152.809937,142.068359 1144.580200,143.678925 1136.259888,144.371124 
	C1134.936401,137.547211 1134.984131,137.513840 1143.213867,135.859314 
	C1152.782715,133.935547 1162.351807,133.486008 1171.867065,136.031342 
	C1181.208008,138.530045 1185.388794,143.972351 1185.577759,153.660049 
	C1185.658691,157.817978 1185.488525,161.982376 1185.629272,166.137146 
	C1185.769531,170.272781 1186.156372,174.400070 1186.450562,178.761017 
	C1181.886597,178.761017 1176.977417,178.761017 1171.960083,178.761017 
	C1172.200928,176.429108 1172.417358,174.332901 1172.754150,171.072495 
	C1163.817749,180.866287 1153.368286,181.469101 1142.414307,179.042099 
	C1134.174438,177.216385 1129.811890,172.033005 1129.902344,165.127213 
	C1129.989746,158.454453 1134.241821,153.631119 1142.462402,151.847702 
	C1146.465576,150.979233 1150.697266,151.164825 1155.241943,150.899384 
M1172.112183,165.421692 
	C1170.496582,163.550888 1169.241699,160.906006 1167.197998,159.953720 
	C1160.952271,157.043335 1154.199097,157.026611 1147.835938,159.418091 
	C1145.694946,160.222733 1143.020996,163.261612 1143.069336,165.218063 
	C1143.118286,167.198822 1146.086792,170.576035 1148.033691,170.770920 
	C1154.325439,171.400696 1160.767212,171.168243 1167.079956,170.546265 
	C1168.854858,170.371414 1170.385132,167.714905 1172.112183,165.421692 
z"/>
<path fill="#CD2907" opacity="1.000000" stroke="none" 
	d="
M222.997253,147.143768 
	C231.934586,131.068146 261.925293,131.052109 272.853027,142.710297 
	C282.956543,153.489197 279.629120,170.577515 265.695496,176.823853 
	C255.352417,181.460587 244.666153,181.521545 234.183075,177.126358 
	C221.774094,171.923706 217.232773,159.789322 222.997253,147.143768 
M260.517700,145.812332 
	C259.205811,145.113586 257.952271,144.259827 256.572784,143.740646 
	C245.625168,139.620438 233.941971,145.498932 233.006119,155.546494 
	C232.325363,162.855103 236.039978,168.637787 242.902252,170.952209 
	C250.940201,173.663162 260.106628,171.155594 263.993713,165.182465 
	C267.828949,159.289001 266.737457,151.995148 260.517700,145.812332 
z"/>
<path fill="#CD2907" opacity="1.000000" stroke="none" 
	d="
M1071.451172,141.403076 
	C1071.737549,136.744629 1073.636230,135.231552 1078.160400,135.365555 
	C1090.472778,135.730133 1102.802856,135.490784 1115.125977,135.490784 
	C1116.748047,135.490784 1118.370117,135.490784 1120.027710,135.490784 
	C1121.368774,140.591156 1120.364990,143.888870 1116.100830,146.891724 
	C1106.192871,153.869019 1096.699585,161.435059 1086.624268,169.076447 
	C1098.980103,169.076447 1110.710083,169.076447 1122.831177,169.076447 
	C1122.496338,171.675217 1122.061035,175.053253 1121.586548,178.736160 
	C1104.183716,178.736160 1086.975586,178.736160 1069.816040,178.736160 
	C1068.121460,173.635574 1069.898438,170.424622 1074.163208,167.458572 
	C1084.210083,160.471313 1093.904785,152.977753 1104.515015,145.116257 
	C1092.824707,145.116257 1082.160767,145.116257 1071.083496,145.116257 
	C1071.143555,144.261871 1071.230103,143.028397 1071.451172,141.403076 
z"/>
<path fill="#CD2805" opacity="1.000000" stroke="none" 
	d="
M1052.912598,179.062836 
	C1038.125488,179.062836 1023.824158,179.062836 1009.408020,179.062836 
	C1008.083252,174.057587 1008.987122,170.650406 1013.493408,167.567734 
	C1023.593628,160.658295 1033.243530,153.090576 1043.948608,145.143723 
	C1032.005981,145.143723 1021.208374,145.143723 1010.137268,145.143723 
	C1010.860107,142.085449 1011.607117,138.925415 1012.371826,135.690155 
	C1028.284546,135.690155 1043.903320,135.690155 1059.474854,135.690155 
	C1061.088013,140.738632 1059.611694,144.062088 1055.320190,147.101624 
	C1045.436035,154.102295 1035.929199,161.635895 1025.992188,169.163223 
	C1038.298340,169.163223 1050.097412,169.163223 1062.325317,169.163223 
	C1061.950928,171.891479 1061.485107,175.284729 1060.966553,179.062836 
	C1058.339600,179.062836 1055.868896,179.062836 1052.912598,179.062836 
z"/>
<path fill="#CD2705" opacity="1.000000" stroke="none" 
	d="
M399.116577,179.061981 
	C397.172699,178.996887 395.715240,178.931808 394.351105,178.870880 
	C392.960022,173.726227 394.390076,170.404800 398.754852,167.403137 
	C408.732483,160.541550 418.292480,153.072754 428.893036,145.204102 
	C417.099884,145.204102 406.337402,145.204102 395.161774,145.204102 
	C395.840576,142.235718 396.558594,139.096069 397.316681,135.780975 
	C413.106964,135.780975 428.704895,135.780975 444.505524,135.780975 
	C445.934052,140.564682 444.836060,143.930511 440.462921,147.011002 
	C430.549072,153.994431 421.038940,161.551041 410.987000,169.160461 
	C423.247986,169.160461 434.969818,169.160461 447.295837,169.160461 
	C446.931549,171.826111 446.474884,175.167526 445.942657,179.061981 
	C430.433411,179.061981 415.018188,179.061981 399.116577,179.061981 
z"/>
<path fill="#CD2805" opacity="1.000000" stroke="none" 
	d="
M458.066650,145.271637 
	C457.183411,145.453064 456.386353,145.785233 456.257172,145.613907 
	C454.684082,143.527283 457.429077,135.621063 459.814056,135.607132 
	C474.787994,135.519745 489.762634,135.562927 504.614349,135.562927 
	C506.121613,140.842499 504.718048,144.200165 500.368591,147.255737 
	C490.575714,154.135330 481.203156,161.613174 471.263763,169.147583 
	C483.562378,169.147583 495.298737,169.147583 507.591614,169.147583 
	C507.184448,171.927032 506.677551,175.387085 506.159210,178.925201 
	C488.748169,178.925201 471.773682,178.925201 454.497986,178.925201 
	C453.521332,174.482956 453.728394,171.047058 458.191833,167.982925 
	C468.480988,160.919479 478.340302,153.229858 489.191528,145.188416 
	C478.373138,145.188416 468.418182,145.188416 458.066650,145.271637 
z"/>
<path fill="#CC2602" opacity="1.000000" stroke="none" 
	d="
M778.272034,124.353714 
	C771.575562,129.434586 767.382996,137.826797 758.044556,139.528244 
	C748.453674,141.275681 729.957275,132.476120 726.172852,123.650772 
	C725.166687,121.304428 725.281494,118.477402 724.887573,115.473503 
	C724.893433,115.075935 724.817200,115.062988 724.817200,115.062996 
	C728.821655,109.379021 732.826111,103.695038 737.087585,97.722092 
	C750.915771,106.320702 764.486877,115.208282 778.272034,124.353714 
M743.050781,116.731277 
	C742.758667,119.909615 743.960754,122.001495 747.379150,121.451225 
	C748.497437,121.271202 750.094360,119.666252 750.183167,118.605049 
	C750.293762,117.283958 749.240479,114.832260 748.383789,114.688217 
	C746.818054,114.424950 745.027466,115.498245 743.050781,116.731277 
z"/>
<path fill="#CD2501" opacity="1.000000" stroke="none" 
	d="
M801.598145,203.179993 
	C797.640442,208.463287 793.429077,213.506668 789.073608,218.865555 
	C778.411438,221.277863 767.896240,223.389816 757.371704,225.454010 
	C755.918152,225.739105 754.418152,225.787766 752.520630,225.888550 
	C749.673523,220.865311 751.907654,216.338760 754.122559,212.287155 
	C759.944824,201.637070 769.143616,195.132385 781.155884,193.387711 
	C789.696899,192.147171 795.952209,196.913223 801.598145,203.179993 
z"/>
<path fill="#FFC248" opacity="1.000000" stroke="none" 
	d="
M518.775513,232.873596 
	C512.041138,231.136398 505.359192,230.195206 499.551239,227.422943 
	C493.924011,224.736938 491.411407,217.508652 492.730530,212.635864 
	C494.420013,206.394730 499.407745,204.108505 505.036560,203.388031 
	C512.515259,202.430771 519.619385,204.100525 525.589966,208.894592 
	C530.511230,212.846176 533.521484,218.057709 531.979309,224.546829 
	C530.437805,231.033234 524.824219,232.158661 518.775513,232.873596 
z"/>
<path fill="#FFC147" opacity="1.000000" stroke="none" 
	d="
M841.751892,178.765045 
	C843.149658,173.365921 844.547363,167.966797 846.031189,162.158646 
	C862.868652,169.764328 879.676941,177.663269 896.340393,185.856796 
	C902.122681,188.700012 902.710449,193.498779 898.164734,198.321899 
	C892.676941,204.144531 885.248779,206.157181 877.427002,208.098785 
	C877.017578,207.673767 877.001404,207.204407 876.941406,206.387665 
	C878.321594,189.735596 872.450928,181.079468 856.637939,177.858795 
	C852.421204,176.999969 847.673523,178.748138 842.628235,179.197418 
	C842.086853,179.095398 841.751892,178.765045 841.751892,178.765045 
z"/>
<path fill="#FFC248" opacity="1.000000" stroke="none" 
	d="
M547.856689,145.927612 
	C553.330872,150.393585 558.749084,154.656021 557.051392,162.509308 
	C555.464233,169.851135 545.993896,175.132797 537.214050,173.882584 
	C529.098511,172.726974 521.901794,165.015762 522.143127,157.734238 
	C522.396729,150.084076 532.530457,142.415085 540.938782,143.694290 
	C543.186951,144.036301 545.332825,145.050079 547.856689,145.927612 
z"/>
<path fill="#090909" opacity="1.000000" stroke="none" 
	d="
M560.298462,257.570526 
	C573.140625,256.297363 585.550110,254.505981 597.976868,258.296722 
	C583.073608,265.516022 501.755768,271.595032 491.554657,265.314819 
	C496.307831,263.994354 499.924042,262.384399 503.653168,262.055786 
	C522.369629,260.406555 541.115662,259.092438 560.298462,257.570526 
z"/>
<path fill="#090703" opacity="1.000000" stroke="none" 
	d="
M592.578064,88.908997 
	C602.484131,92.099709 612.055176,95.309021 621.565063,98.690170 
	C624.688965,99.800850 627.736511,101.201225 630.672119,102.747856 
	C634.521484,104.775879 637.060608,103.469421 638.710754,99.898193 
	C640.938354,95.077324 642.961914,90.162521 645.102295,85.300888 
	C648.727295,77.067169 654.430603,71.367615 664.055542,70.206703 
	C654.509827,78.707710 651.937927,90.895187 646.677490,101.645332 
	C641.772156,111.670006 636.836731,113.441750 626.527771,109.309547 
	C615.583008,104.922478 604.624329,100.567535 593.738586,96.037766 
	C591.034790,94.912651 588.589172,93.167175 586.023987,91.354355 
	C588.088501,90.332733 590.153870,89.663620 592.578064,88.908997 
z"/>
<path fill="#CD2503" opacity="1.000000" stroke="none" 
	d="
M985.016846,154.999054 
	C985.016846,148.398544 985.016846,142.297607 985.016846,136.376175 
	C989.548767,136.376175 993.800049,136.376175 998.192566,136.376175 
	C998.192566,143.199997 998.192566,150.268753 998.192566,157.337524 
	C998.192566,164.417740 998.192566,171.497955 998.192566,178.795135 
	C994.383911,178.795135 989.286499,178.795135 985.016846,178.795135 
	C985.016846,170.932571 985.016846,163.215591 985.016846,154.999054 
z"/>
<path fill="#0A0A0A" opacity="1.000000" stroke="none" 
	d="
M588.786682,272.068298 
	C575.615784,274.789246 562.815125,277.589661 549.920349,279.853546 
	C541.748047,281.288330 533.455444,282.211975 525.176697,282.789917 
	C521.356628,283.056610 517.440491,281.947174 513.567871,281.461700 
	C513.465210,280.837891 513.362549,280.214081 513.259888,279.590271 
	C516.163818,278.380768 518.972290,276.502808 521.987366,276.072601 
	C538.777283,273.677155 555.586426,271.322479 572.457764,269.645599 
	C577.953918,269.099365 583.657104,270.634216 589.264343,271.229706 
	C589.317688,271.235382 589.410461,271.431183 589.384949,271.502380 
	C589.330444,271.654266 589.210327,271.782654 588.786682,272.068298 
z"/>
<path fill="#0C0C0C" opacity="1.000000" stroke="none" 
	d="
M770.710754,235.646698 
	C772.254517,234.428177 773.534363,233.489120 775.889404,231.761139 
	C775.514709,237.368729 775.412720,241.735291 774.898132,246.052673 
	C773.489136,257.872375 777.496521,266.564850 788.887146,271.227661 
	C789.306213,271.399231 789.611084,271.849915 789.998413,272.196655 
	C781.921631,274.366486 774.334778,271.664581 770.535095,264.553436 
	C765.514221,255.156952 765.460815,245.484238 770.710754,235.646698 
z"/>
<path fill="#111111" opacity="1.000000" stroke="none" 
	d="
M618.697205,253.646652 
	C618.533020,256.369629 618.439697,258.701080 618.090393,260.993500 
	C616.807556,269.412537 617.077759,277.304138 626.108276,282.880951 
	C617.482483,282.410828 612.426270,278.699585 610.572449,272.255066 
	C608.490479,265.017059 611.020386,255.729645 615.979797,252.164856 
	C617.558533,251.030029 618.656006,250.641129 618.697205,253.646652 
z"/>
<path fill="#CD2907" opacity="1.000000" stroke="none" 
	d="
M998.201599,126.401672 
	C994.571167,129.674896 990.697449,129.906250 986.988281,127.804131 
	C985.553467,126.990959 984.137329,124.748642 984.150085,123.168983 
	C984.162842,121.580971 985.807617,118.812599 987.010559,118.655586 
	C990.371033,118.216980 994.067505,118.301392 997.210632,119.391869 
	C998.269165,119.759148 998.064453,123.767586 998.201599,126.401672 
z"/>
<path fill="#0C0903" opacity="1.000000" stroke="none" 
	d="
M684.203979,65.325737 
	C679.596008,65.502449 674.774231,65.502449 669.022522,65.502449 
	C671.709167,60.567829 674.832275,60.696781 678.562012,61.233356 
	C678.973633,61.102890 679.003357,61.060940 679.048096,61.429871 
	C679.796448,62.022846 680.500061,62.246891 681.203674,62.470940 
	C682.132446,63.363640 683.061218,64.256332 684.203979,65.325737 
z"/>
<path fill="#FEC045" opacity="1.000000" stroke="none" 
	d="
M681.098083,62.058815 
	C680.500061,62.246891 679.796448,62.022846 679.028687,61.424622 
	C679.640503,61.249199 680.316528,61.447945 681.098083,62.058815 
z"/>
<path fill="#CC2401" opacity="1.000000" stroke="none" 
	d="
M657.088623,117.916252 
	C659.668213,91.534706 682.901001,87.920464 701.017212,97.691528 
	C710.167725,102.626892 715.214539,110.510796 715.090759,121.237526 
	C714.938049,134.471634 705.242554,144.117554 691.969788,144.238525 
	C672.935242,144.412003 659.667786,134.560440 657.088623,117.916252 
M669.536865,117.377731 
	C668.232910,118.887527 666.695129,120.277946 665.813782,122.003571 
	C665.627991,122.367363 667.776367,124.663918 668.981323,124.788055 
	C670.174133,124.910942 672.690796,123.242165 672.604370,122.658821 
	C672.340698,120.878761 671.102844,119.243011 669.536865,117.377731 
M680.933838,133.711792 
	C682.820618,133.881760 684.774414,134.376480 686.550659,134.010254 
	C687.039795,133.909378 687.631470,130.859711 687.027283,129.851761 
	C686.397400,128.801025 683.542969,127.741898 683.126404,128.156967 
	C681.881897,129.396957 681.354919,131.357025 680.933838,133.711792 
z"/>
<path fill="#CC2501" opacity="1.000000" stroke="none" 
	d="
M751.279785,189.295959 
	C742.334106,196.099609 733.171814,200.883713 722.005737,196.121384 
	C708.320984,190.284851 697.329041,171.011734 710.035156,155.790573 
	C715.110413,149.710739 729.489441,144.684769 737.315552,148.768875 
	C744.448914,152.491486 750.570923,157.029160 754.757629,163.894440 
	C760.526062,173.353516 759.498657,180.815842 751.279785,189.295959 
M725.365173,172.942535 
	C728.179810,172.069183 729.745544,170.311798 728.235596,167.446808 
	C727.680664,166.393890 725.769409,165.239365 724.750671,165.450760 
	C723.431580,165.724457 721.258667,167.638214 721.441284,168.282089 
	C721.929138,170.002319 723.479187,171.421310 725.365173,172.942535 
M726.538025,180.002045 
	C724.718018,180.345383 722.577881,180.248062 721.223206,181.232040 
	C720.615112,181.673752 721.158142,184.560898 721.987366,185.795288 
	C722.478333,186.526291 725.562012,186.650330 725.732788,186.267563 
	C726.519592,184.504578 726.692017,182.467377 726.538025,180.002045 
M742.139038,175.183380 
	C743.991089,175.676910 745.848511,176.475922 747.691406,176.443787 
	C748.138245,176.436005 749.097839,173.549377 748.775146,172.245499 
	C748.531311,171.260101 745.961670,169.798340 745.569580,170.089142 
	C744.105225,171.175034 743.111389,172.895508 742.139038,175.183380 
z"/>
<path fill="#CC2501" opacity="1.000000" stroke="none" 
	d="
M667.140198,207.288483 
	C659.999878,212.054352 652.859497,216.820221 645.430298,221.716888 
	C640.168579,211.995346 645.910522,205.155350 651.904602,198.573196 
	C660.383911,189.261963 671.715088,186.016846 683.671631,185.446579 
	C694.586304,184.926010 704.492859,193.221100 709.182495,205.565186 
	C708.412659,206.089691 707.392944,206.634964 706.700073,206.359146 
	C696.974121,202.487289 687.109680,202.265244 677.076965,204.920593 
	C676.299133,205.126450 675.427490,204.977829 674.161255,204.605682 
	C672.968628,201.334457 671.212280,199.735870 668.290649,201.066345 
	C665.306824,202.425186 665.638306,204.858353 667.140198,207.288483 
z"/>
<path fill="#0B0803" opacity="1.000000" stroke="none" 
	d="
M645.939209,140.760040 
	C645.654724,137.763885 645.483582,135.137222 645.312378,132.510544 
	C645.765320,132.402496 646.218201,132.294434 646.671143,132.186386 
	C649.132568,134.828369 651.625854,137.441544 654.048828,140.118317 
	C659.276855,145.893906 665.791382,148.350220 673.541321,148.394547 
	C682.279480,148.444504 691.015137,148.944901 699.751892,149.249374 
	C699.834534,149.697144 699.917236,150.144913 699.999878,150.592682 
	C698.991455,151.210175 698.058289,152.107956 696.963074,152.401672 
	C686.337891,155.251190 675.600952,157.564499 664.598022,154.945175 
	C656.534912,153.025696 650.028931,148.693909 645.939209,140.760040 
z"/>
<path fill="#0C0903" opacity="1.000000" stroke="none" 
	d="
M748.072388,214.549591 
	C746.958435,214.081284 745.349487,213.342255 745.246887,212.433167 
	C744.994690,210.199341 744.944031,207.713562 745.677795,205.634644 
	C750.581116,191.742752 771.813049,179.840591 786.244385,182.827316 
	C788.381714,183.269653 790.365356,184.454361 792.389465,185.808044 
	C772.723755,187.929703 758.107300,197.359238 748.072388,214.549591 
z"/>
<path fill="#0B0803" opacity="1.000000" stroke="none" 
	d="
M768.548462,164.370743 
	C771.303406,166.452591 773.820007,168.257080 776.336609,170.061554 
	C776.201477,170.545029 776.066345,171.028503 775.931213,171.511978 
	C772.091980,170.343536 767.772827,169.926834 764.515137,167.847366 
	C758.086121,163.743546 758.472046,156.208374 764.756348,151.833313 
	C765.705872,151.172287 766.710999,150.577393 767.738586,150.044632 
	C772.263794,147.698547 776.806580,145.386429 781.603882,142.928345 
	C782.777832,148.160049 780.093506,151.312469 776.463562,153.870956 
	C774.583130,155.196381 772.380127,156.055283 770.374878,157.214828 
	C767.567078,158.838364 766.105774,160.933350 768.548462,164.370743 
z"/>
<path fill="#0C0903" opacity="1.000000" stroke="none" 
	d="
M729.973572,97.984573 
	C728.107910,103.477554 726.242249,108.970528 724.596924,114.763245 
	C724.817200,115.062988 724.893433,115.075935 724.879028,115.042122 
	C724.203552,117.864090 723.542542,120.719872 722.799805,123.928764 
	C718.183716,121.762680 716.733765,118.033134 716.861389,113.503693 
	C717.056702,106.573235 722.129089,100.273468 729.700562,97.877197 
	C730.026428,98.023247 729.973572,97.984573 729.973572,97.984573 
z"/>
<path fill="#161006" opacity="1.000000" stroke="none" 
	d="
M603.971680,229.859894 
	C608.196167,229.009735 612.040710,228.269531 616.413635,227.427582 
	C611.597717,235.500198 602.603577,238.532089 596.158630,234.006149 
	C598.878296,232.529327 601.234985,231.249588 603.971680,229.859894 
z"/>
<path fill="#161006" opacity="1.000000" stroke="none" 
	d="
M684.132812,167.380859 
	C677.122864,170.277206 673.306091,169.161789 670.186707,162.920227 
	C676.602600,162.920227 682.670349,162.920227 689.139832,162.920227 
	C687.692017,164.238983 686.077209,165.709869 684.132812,167.380859 
z"/>
<path fill="#0C0903" opacity="1.000000" stroke="none" 
	d="
M730.053223,98.041977 
	C730.116333,97.830933 730.152588,97.601166 730.188843,97.371414 
	C730.256531,97.535973 730.324158,97.700531 730.182678,97.924835 
	C729.973572,97.984573 730.026428,98.023247 730.053223,98.041977 
z"/>
<path fill="#030201" opacity="1.000000" stroke="none" 
	d="
M664.394897,265.631165 
	C659.816345,265.486420 655.367920,265.973969 651.488586,264.712006 
	C647.424622,263.389984 645.904846,259.350250 647.660339,255.225906 
	C649.135864,251.759613 650.844543,248.047302 653.467468,245.485718 
	C659.153748,239.932449 665.078125,234.405838 671.715027,230.123459 
	C675.783752,227.498138 681.306946,226.300644 686.257568,226.049301 
	C695.146912,225.597992 699.487610,232.542236 694.458191,239.991211 
	C689.708557,247.025864 683.261475,253.055069 676.913025,258.812012 
	C673.584412,261.830505 668.865967,263.316406 664.394897,265.631165 
z"/>
<path fill="#0F0200" opacity="1.000000" stroke="none" 
	d="
M667.502075,207.260498 
	C665.638306,204.858353 665.306824,202.425186 668.290649,201.066345 
	C671.212280,199.735870 672.968628,201.334457 673.718323,204.551132 
	C671.763733,205.667404 669.813782,206.449966 667.502075,207.260498 
z"/>
<path fill="#030101" opacity="1.000000" stroke="none" 
	d="
M816.272461,221.257187 
	C823.064697,216.904266 829.259827,212.061523 836.218323,208.897339 
	C841.323120,206.576080 847.875061,206.437897 851.645813,211.911362 
	C855.439209,217.417664 851.930786,222.645752 848.376953,226.794464 
	C840.023804,236.545776 831.223022,245.885010 817.706604,248.483017 
	C812.713135,249.442825 808.239441,248.542145 805.202881,244.407761 
	C802.149780,240.250793 804.059631,235.974304 806.627502,232.413010 
	C809.424255,228.534302 812.850708,225.109665 816.272461,221.257187 
z"/>
<path fill="#CD2903" opacity="1.000000" stroke="none" 
	d="
M837.149414,185.329315 
	C837.296753,184.270584 837.616211,183.450546 838.454712,181.298248 
	C838.768127,183.552521 838.885010,184.393082 839.003906,185.567047 
	C838.444519,185.789642 837.882996,185.678833 837.149414,185.329315 
z"/>
<path fill="#FEFBFB" opacity="1.000000" stroke="none" 
	d="
M170.973007,130.000748 
	C174.941528,130.177536 178.485275,129.986679 181.884476,130.598633 
	C192.999283,132.599594 199.329697,139.780258 198.813507,149.359436 
	C198.288528,159.101196 190.939987,166.156876 179.847702,166.835495 
	C172.576675,167.280350 165.256332,166.919510 157.651154,166.919510 
	C157.651154,154.707855 157.651154,142.659790 157.651154,130.000748 
	C161.966034,130.000748 166.224030,130.000748 170.973007,130.000748 
z"/>
<path fill="#FEFBFB" opacity="1.000000" stroke="none" 
	d="
M923.217163,135.561005 
	C923.185791,133.509857 923.185791,131.879898 923.185791,129.889694 
	C933.169128,129.889694 942.775574,129.323242 952.273376,130.094391 
	C958.323669,130.585617 961.619995,135.027740 961.832764,139.955093 
	C962.029480,144.510025 958.988342,148.968628 953.687500,150.758682 
	C944.970642,153.702271 936.315491,153.079346 929.283508,146.922775 
	C926.337341,144.343307 925.205322,139.691696 923.217163,135.561005 
z"/>
<path fill="#0F0200" opacity="1.000000" stroke="none" 
	d="
M812.836609,165.147064 
	C812.387390,163.078796 811.844910,161.082993 812.352051,159.404343 
	C812.547974,158.756073 815.659851,158.120834 816.486145,158.745560 
	C817.577576,159.570709 818.617676,162.425262 818.099121,163.013077 
	C816.993225,164.266846 814.869202,164.622498 812.836609,165.147064 
z"/>
<path fill="#FFC147" opacity="1.000000" stroke="none" 
	d="
M842.247375,179.267334 
	C842.071045,179.307037 841.734131,179.174820 841.574585,178.903809 
	C841.751892,178.765045 842.086853,179.095398 842.247375,179.267334 
z"/>
<path fill="#FEFAF9" opacity="1.000000" stroke="none" 
	d="
M1172.069824,165.809174 
	C1170.385132,167.714905 1168.854858,170.371414 1167.079956,170.546265 
	C1160.767212,171.168243 1154.325439,171.400696 1148.033691,170.770920 
	C1146.086792,170.576035 1143.118286,167.198822 1143.069336,165.218063 
	C1143.020996,163.261612 1145.694946,160.222733 1147.835938,159.418091 
	C1154.199097,157.026611 1160.952271,157.043335 1167.197998,159.953720 
	C1169.241699,160.906006 1170.496582,163.550888 1172.069824,165.809174 
z"/>
<path fill="#FEFCFC" opacity="1.000000" stroke="none" 
	d="
M260.836975,146.016693 
	C266.737457,151.995148 267.828949,159.289001 263.993713,165.182465 
	C260.106628,171.155594 250.940201,173.663162 242.902252,170.952209 
	C236.039978,168.637787 232.325363,162.855103 233.006119,155.546494 
	C233.941971,145.498932 245.625168,139.620438 256.572784,143.740646 
	C257.952271,144.259827 259.205811,145.113586 260.836975,146.016693 
z"/>
<path fill="#0F0200" opacity="1.000000" stroke="none" 
	d="
M743.190735,116.372688 
	C745.027466,115.498245 746.818054,114.424950 748.383789,114.688217 
	C749.240479,114.832260 750.293762,117.283958 750.183167,118.605049 
	C750.094360,119.666252 748.497437,121.271202 747.379150,121.451225 
	C743.960754,122.001495 742.758667,119.909615 743.190735,116.372688 
z"/>
<path fill="#0F0200" opacity="1.000000" stroke="none" 
	d="
M669.890442,117.464417 
	C671.102844,119.243011 672.340698,120.878761 672.604370,122.658821 
	C672.690796,123.242165 670.174133,124.910942 668.981323,124.788055 
	C667.776367,124.663918 665.627991,122.367363 665.813782,122.003571 
	C666.695129,120.277946 668.232910,118.887527 669.890442,117.464417 
z"/>
<path fill="#0F0200" opacity="1.000000" stroke="none" 
	d="
M680.740784,133.373840 
	C681.354919,131.357025 681.881897,129.396957 683.126404,128.156967 
	C683.542969,127.741898 686.397400,128.801025 687.027283,129.851761 
	C687.631470,130.859711 687.039795,133.909378 686.550659,134.010254 
	C684.774414,134.376480 682.820618,133.881760 680.740784,133.373840 
z"/>
<path fill="#0F0200" opacity="1.000000" stroke="none" 
	d="
M724.986084,172.951279 
	C723.479187,171.421310 721.929138,170.002319 721.441284,168.282089 
	C721.258667,167.638214 723.431580,165.724457 724.750671,165.450760 
	C725.769409,165.239365 727.680664,166.393890 728.235596,167.446808 
	C729.745544,170.311798 728.179810,172.069183 724.986084,172.951279 
z"/>
<path fill="#0F0200" opacity="1.000000" stroke="none" 
	d="
M726.811401,180.265289 
	C726.692017,182.467377 726.519592,184.504578 725.732788,186.267563 
	C725.562012,186.650330 722.478333,186.526291 721.987366,185.795288 
	C721.158142,184.560898 720.615112,181.673752 721.223206,181.232040 
	C722.577881,180.248062 724.718018,180.345383 726.811401,180.265289 
z"/>
<path fill="#0F0200" opacity="1.000000" stroke="none" 
	d="
M742.040039,174.780655 
	C743.111389,172.895508 744.105225,171.175034 745.569580,170.089142 
	C745.961670,169.798340 748.531311,171.260101 748.775146,172.245499 
	C749.097839,173.549377 748.138245,176.436005 747.691406,176.443787 
	C745.848511,176.475922 743.991089,175.676910 742.040039,174.780655 
z"/>
</svg>